<svg id="Logo" xmlns="http://www.w3.org/2000/svg" viewBox="0 0 102.893 24">
  <g id="Logo_icon" data-name="Logo icon">
    <path id="Path_100" data-name="Path 100" d="M5.786.79,13.259,0l7.473.79,5.786,7.781L13.259,24,0,8.571Z" fill="#fdb300"/>
    <path id="Path_101" data-name="Path 101" d="M5.371,10l7.888,15.429L0,10Z" transform="translate(0 -1.429)" fill="#ea6c00"/>
    <path id="Path_102" data-name="Path 102" d="M23.357,10,15.468,25.429,28.727,10Z" transform="translate(-2.21 -1.429)" fill="#ea6c00"/>
    <path id="Path_103" data-name="Path 103" d="M6.266,10H22.043L14.154,25.429Z" transform="translate(-0.895 -1.429)" fill="#fdad00"/>
    <path id="Path_104" data-name="Path 104" d="M14.154,0,6.681.79,6.266,8.571Z" transform="translate(-0.895)" fill="#fdd231"/>
    <path id="Path_105" data-name="Path 105" d="M15.468,0l7.473.79.415,7.781Z" transform="translate(-2.21)" fill="#fdd231"/>
    <path id="Path_106" data-name="Path 106" d="M26.517,8.7,20.732.922,21.147,8.7ZM0,8.7,5.786.922,5.371,8.7Z" transform="translate(0 -0.132)" fill="#fdad00"/>
    <path id="Path_107" data-name="Path 107" d="M14.154,0,6.266,8.571H22.043Z" transform="translate(-0.895)" fill="#feeeb7"/>
  </g>
  <path id="Logo_name" data-name="Logo name" d="M-22.9-10.452h2.26c-.068-2.487-2.267-4.292-5.422-4.292-3.117,0-5.505,1.782-5.505,4.459,0,2.161,1.547,3.427,4.042,4.1l1.835.5c1.661.44,2.942.986,2.942,2.366C-22.746-1.8-24.194-.8-26.188-.8c-1.8,0-3.306-.8-3.443-2.495h-2.351c.152,2.813,2.328,4.55,5.809,4.55,3.647,0,5.748-1.918,5.748-4.55,0-2.8-2.495-3.882-4.466-4.368l-1.517-.394c-1.213-.311-2.828-.88-2.821-2.366,0-1.319,1.206-2.3,3.117-2.3C-24.33-12.72-23.064-11.886-22.9-10.452ZM-17.809,1h2.267V-3.135l1.13-1.13L-10.454,1h2.783l-5.035-6.65,4.717-5H-10.7l-4.641,4.929h-.2v-8.811h-2.267Zm16.417.235c2.54,0,4.337-1.251,4.853-3.147L1.315-2.3A2.635,2.635,0,0,1-1.369-.64c-1.941,0-3.245-1.259-3.306-3.5H3.605v-.8c0-4.209-2.518-5.854-5.156-5.854C-4.8-10.8-6.935-8.329-6.935-4.75-6.935-1.133-4.827,1.233-1.392,1.233ZM-4.668-5.842A3.128,3.128,0,0,1-1.536-8.928,2.877,2.877,0,0,1,1.383-5.842ZM11.567-10.65H9.179V-13.44H6.911v2.791H5.205v1.82H6.911v6.878a3.042,3.042,0,0,0,3.4,3.1A4.341,4.341,0,0,0,11.78.907L11.37-.966a3.687,3.687,0,0,1-.8.1c-.736,0-1.4-.243-1.4-1.555V-8.83h2.389ZM18.855,1.233c2.753,0,4.535-1.653,4.785-3.92H21.433a2.488,2.488,0,0,1-2.563,2c-1.918,0-3.155-1.6-3.155-4.14,0-2.495,1.259-4.064,3.155-4.064a2.5,2.5,0,0,1,2.563,2h2.207C23.4-9.239,21.478-10.8,18.832-10.8c-3.283,0-5.407,2.472-5.407,6.028C13.425-1.262,15.473,1.233,18.855,1.233Zm9.486-7.151a2.675,2.675,0,0,1,2.791-2.919,2.384,2.384,0,0,1,2.495,2.7V1h2.267V-6.411c0-2.9-1.592-4.391-3.989-4.391a3.41,3.41,0,0,0-3.45,2.047H28.31v-5.778H26.073V1h2.267Z" transform="translate(67 18.744)" fill="#1a1a1a"/>
</svg>
