<svg xmlns="http://www.w3.org/2000/svg" xmlns:xlink="http://www.w3.org/1999/xlink" width="447" height="405" viewBox="0 0 447 405"><defs><linearGradient id="a" x1="-2.852" y1="3.522" x2="-2.847" y2="3.514" gradientUnits="objectBoundingBox"><stop offset="0" stop-color="#fb8332"/><stop offset="1" stop-color="#f8c332"/></linearGradient><linearGradient id="b" x1="0.599" y1="3.523" x2="0.605" y2="3.515" xlink:href="#a"/><linearGradient id="c" x1="0.226" y1="1.259" x2="0.229" y2="1.255" gradientUnits="objectBoundingBox"><stop offset="0" stop-color="#e64c4c"/><stop offset="1" stop-color="#fb8332"/></linearGradient><linearGradient id="d" x1="-0.758" y1="1.259" x2="-0.755" y2="1.255" xlink:href="#c"/><linearGradient id="e" x1="-1.2" y1="3.254" x2="-1.196" y2="3.246" xlink:href="#a"/><linearGradient id="f" x1="-0.201" y1="3.253" x2="-0.197" y2="3.246" xlink:href="#a"/><linearGradient id="g" x1="-0.016" y1="1.259" x2="-0.014" y2="1.255" xlink:href="#a"/><linearGradient id="h" x1="0.946" y1="0.727" x2="0.054" y2="0.273" xlink:href="#c"/></defs><g transform="translate(0 -0.658)"><g transform="translate(8.278 8.271)"><g transform="translate(5.174)"><path d="M137-181l1.035,125.2h92.09Z" transform="translate(184.799 194.451)" fill-rule="evenodd" fill="url(#a)"/><path d="M-79.84-181-174-55.8h87.951Z" transform="translate(174 194.451)" fill-rule="evenodd" fill="url(#b)"/><path d="M35.6,190.4-161-60h69.326Z" transform="translate(174.451 198.653)" fill-rule="evenodd" fill="url(#c)"/><path d="M141.785-60,29,190.4,229.736-60Z" transform="translate(181.049 198.653)" fill-rule="evenodd" fill="url(#d)"/><path d="M29-194l122.1,13.451,5.174,126.236Z" transform="translate(181.049 194)" fill-rule="evenodd" fill="url(#e)"/><path d="M-87.792-180.549,33.271-194-94-54.312Z" transform="translate(176.778 194)" fill-rule="evenodd" fill="url(#f)"/><path d="M-113-58.965,181.378-60,33.931,190.4Z" transform="translate(176.118 198.653)" fill-rule="evenodd" fill="url(#g)"/><path d="M-124-54.312H192.625L34.313-194Z" transform="translate(175.736 194)" fill="#f7b500" fill-rule="evenodd"/></g><g transform="translate(0)" opacity="0.4"><path d="M41.222,190.4-174-60h87.951" transform="translate(174 198.653)" fill="none" stroke="#fa6400" stroke-linecap="round" stroke-linejoin="round" stroke-width="1.5"/><path d="M34,190.4,249.222-60H161.271" transform="translate(181.222 198.653)" fill="none" stroke="#fa6400" stroke-linecap="round" stroke-linejoin="round" stroke-width="1.5"/><path d="M245.125-55.8,152-181l5.174,125.2" transform="translate(185.319 194.451)" fill="none" stroke="#fa6400" stroke-linecap="round" stroke-linejoin="round" stroke-width="1.5"/><path d="M161.271-55.347,34-194l122.1,13.451" transform="translate(181.222 194)" fill="none" stroke="#fa6400" stroke-linecap="round" stroke-linejoin="round" stroke-width="1.5"/><path d="M-82.792-180.549,38.271-194-89-55.347" transform="translate(176.951 194)" fill="none" stroke="#fa6400" stroke-linecap="round" stroke-linejoin="round" stroke-width="1.5"/><path d="M-86.049-55.8-79.84-181-174-55.8" transform="translate(174 194.451)" fill="none" stroke="#fa6400" stroke-linecap="round" stroke-linejoin="round" stroke-width="1.5"/><path d="M-89-58.965,165.542-60,38.271,190.4Z" transform="translate(176.951 198.653)" fill="none" stroke="#fa6400" stroke-linecap="round" stroke-linejoin="round" stroke-width="1.5"/></g></g><ellipse cx="8.5" cy="8" rx="8.5" ry="8" transform="translate(215 0.658)" fill="url(#h)"/><ellipse cx="8.5" cy="8" rx="8.5" ry="8" transform="translate(94 13.658)" fill="url(#h)"/><ellipse cx="8" cy="8.5" rx="8" ry="8.5" transform="translate(0 138.658)" fill="url(#h)"/><ellipse cx="8.5" cy="8" rx="8.5" ry="8" transform="translate(215 389.658)" fill="url(#h)"/><ellipse cx="8" cy="8.5" rx="8" ry="8.5" transform="translate(431 138.658)" fill="url(#h)"/><ellipse cx="8.5" cy="8" rx="8.5" ry="8" transform="translate(337 13.658)" fill="url(#h)"/></g></svg>